<svg xmlns="http://www.w3.org/2000/svg" xml:space="preserve" width="800" height="800" viewBox="0 0 512 512"><path d="M512 256c0 141.376-114.625 256-256 256-40.96 0-79.698-9.605-113.99-26.751-49.85-24.846-90.413-65.409-115.259-115.26C9.605 335.698 0 296.959 0 256c0-7.144.317-14.13.873-21.115C11.033 110.337 110.338 11.034 234.885.873 241.87.318 248.856 0 256 0c48.739 0 94.303 13.653 133.12 37.308a256.441 256.441 0 0 1 85.572 85.572C498.346 161.697 512 207.261 512 256z" style="fill:#819b9f"/><path d="M288.196 149.937H223.75l29.229-71.748c1.646-4.041 4.338-4.041 5.985 0l29.232 71.748zM223.75 362.063h64.446l-29.229 71.748c-1.646 4.041-4.338 4.041-5.985 0l-29.232-71.748zM362.036 288.223v-64.446l71.748 29.229c4.041 1.646 4.041 4.338 0 5.985l-71.748 29.232zM149.91 223.777v64.446l-71.748-29.229c-4.041-1.646-4.041-4.338 0-5.985l71.748-29.232z" style="fill:#cecdc1"/><path d="M368.64 226.471c-2.937-11.193-7.541-21.75-13.415-31.356-9.605-15.638-22.782-28.815-38.341-38.34a114.874 114.874 0 0 0-31.355-13.494c-9.446-2.461-19.369-3.81-29.529-3.81-10.161 0-20.004 1.349-29.45 3.731h-.079c-40.563 10.716-72.553 42.705-83.19 83.269-2.461 9.446-3.81 19.368-3.81 29.529 0 10.161 1.349 20.083 3.81 29.529 2.937 11.272 7.462 21.829 13.415 31.434 9.605 15.559 22.782 28.736 38.341 38.262a119.243 119.243 0 0 0 31.434 13.574h.079c9.446 2.382 19.289 3.731 29.45 3.731 10.16 0 20.083-1.349 29.529-3.81 40.563-10.637 72.474-42.627 83.111-83.19 2.461-9.446 3.81-19.368 3.81-29.529 0-10.162-1.349-20.084-3.81-29.53zM256 337.762a79.9 79.9 0 0 1-24.37-3.81h-.079c-25.481-7.938-45.643-28.101-53.581-53.581v-.079c-2.461-7.701-3.731-15.876-3.731-24.291 0-45.087 36.674-81.762 81.762-81.762 8.494 0 16.67 1.27 24.37 3.731 25.401 7.938 45.564 28.101 53.581 53.581v.079c2.461 7.7 3.731 15.876 3.731 24.37-.001 45.087-36.675 81.762-81.683 81.762z" style="fill:#f5f4df"/><path d="m296.327 296.354-80.703-80.703 174.962-101.759c9.854-5.731 13.225-2.36 7.494 7.494L296.327 296.354z" style="fill:#bd334f"/><path d="M296.327 296.354 121.36 398.108c-9.854 5.731-13.225 2.36-7.494-7.494l101.759-174.962 80.702 80.702z" style="fill:#7dcbda"/><circle cx="255.973" cy="256" r="22.8" style="fill:#fff"/><path d="M265.605 15.955v25.481l-19.766-25.481h-8.732V57.55h9.764V31.99l19.845 25.56h8.653V15.955h-9.764zM273.146 475.009c-.635-1.509-1.588-2.778-2.937-3.731a10.88 10.88 0 0 0-3.889-2.143c-1.508-.476-3.334-.873-5.636-1.191l-5.953-.714c-1.111-.159-1.984-.317-2.778-.635-.715-.238-1.27-.556-1.826-.953-.476-.476-.873-.872-1.111-1.428-.159-.477-.318-1.032-.318-1.587 0-1.429.635-2.62 1.905-3.651 1.19-1.033 3.175-1.588 5.795-1.588 1.588 0 3.334.159 5.159.476 1.826.318 3.493 1.112 5.08 2.382l6.192-5.08c-2.223-1.746-4.525-3.016-7.144-3.731-2.54-.714-5.557-1.111-9.049-1.111-2.699 0-5.159.318-7.303.953s-3.969 1.429-5.477 2.54c-1.429 1.112-2.62 2.461-3.413 4.048-.794 1.509-1.191 3.175-1.191 5.081 0 3.572 1.191 6.27 3.572 8.175a14.068 14.068 0 0 0 4.048 2.223c1.508.555 3.413.952 5.636 1.27l5.953.714c1.27.158 2.222.317 2.858.555.556.159 1.111.477 1.667.874 1.031.872 1.508 1.984 1.508 3.413 0 1.667-.715 3.016-2.223 3.889-1.508.873-3.731 1.349-6.668 1.349-2.302 0-4.445-.237-6.509-.793-2.064-.477-3.89-1.429-5.477-2.7l-6.351 5.239c2.461 2.064 5.16 3.493 8.097 4.286 3.016.795 6.35 1.192 10.161 1.192 2.619 0 5.08-.238 7.303-.874 2.302-.555 4.286-1.349 5.953-2.382a13.193 13.193 0 0 0 3.89-3.969c.953-1.587 1.349-3.333 1.349-5.397 0-1.905-.238-3.572-.873-5.001zM486.678 245.125v-7.224h-32.863v41.595h32.863v-7.223h-23.1v-10.161h19.686v-7.224h-19.686v-9.764h23.1zM58.661 237.901 51.2 264.097l-8.652-26.196h-6.986l-8.732 26.196-7.383-26.196H9.764l12.701 41.595h7.78l8.811-25.242 8.732 25.242h7.78l12.78-41.595h-9.687z" style="fill:#f7f1e4"/><path d="M437.026 74.974 75.004 436.996a256.798 256.798 0 0 0 67.006 48.253C176.302 502.395 215.04 512 256 512c141.375 0 256-114.624 256-256 0-48.739-13.654-94.303-37.309-133.12a256.322 256.322 0 0 0-37.665-47.906z" style="opacity:.1;fill:#040000"/></svg>